<svg xmlns="http://www.w3.org/2000/svg" version="1.1" xmlns:xlink="http://www.w3.org/1999/xlink" xmlns:svgjs="http://svgjs.dev/svgjs" width="1440" height="560" preserveAspectRatio="none" viewBox="0 0 1440 560">
    <g mask="url(&quot;#SvgjsMask1382&quot;)" fill="none">
        <rect width="115.84" height="115.84" clip-path="url(&quot;#SvgjsClipPath1383&quot;)" x="-29.81" y="282.11" fill="url(&quot;#SvgjsPattern1384&quot;)" transform="rotate(50.67, 28.11, 340.03)"></rect>
        <path d="M762.98 8.64a5.6 5.6 0 1 0-0.79-11.18 5.6 5.6 0 1 0 0.79 11.18zM761.85-7.32a5.6 5.6 0 1 0-0.79-11.18 5.6 5.6 0 1 0 0.79 11.18zM760.72-23.28a5.6 5.6 0 1 0-0.79-11.18 5.6 5.6 0 1 0 0.79 11.18zM759.59-39.24a5.6 5.6 0 1 0-0.79-11.18 5.6 5.6 0 1 0 0.79 11.18z" fill="#037b0b"></path>
        <path d="M1323.63 493.85a5.6 5.6 0 1 0-0.94 11.16 5.6 5.6 0 1 0 0.94-11.16zM1322.29 509.79a5.6 5.6 0 1 0-0.93 11.16 5.6 5.6 0 1 0 0.93-11.16zM1320.96 525.74a5.6 5.6 0 1 0-0.93 11.16 5.6 5.6 0 1 0 0.93-11.16zM1319.63 541.68a5.6 5.6 0 1 0-0.94 11.16 5.6 5.6 0 1 0 0.94-11.16zM1310.35 460.63a5.6 5.6 0 1 0-0.93 11.16 5.6 5.6 0 1 0 0.93-11.16zM1309.02 476.57a5.6 5.6 0 1 0-0.94 11.16 5.6 5.6 0 1 0 0.94-11.16zM1307.68 492.52a5.6 5.6 0 1 0-0.93 11.16 5.6 5.6 0 1 0 0.93-11.16zM1306.35 508.46a5.6 5.6 0 1 0-0.93 11.16 5.6 5.6 0 1 0 0.93-11.16zM1297.07 427.41a5.6 5.6 0 1 0-0.93 11.16 5.6 5.6 0 1 0 0.93-11.16zM1295.74 443.35a5.6 5.6 0 1 0-0.93 11.16 5.6 5.6 0 1 0 0.93-11.16zM1294.41 459.29a5.6 5.6 0 1 0-0.94 11.17 5.6 5.6 0 1 0 0.94-11.17zM1293.07 475.24a5.6 5.6 0 1 0-0.93 11.16 5.6 5.6 0 1 0 0.93-11.16z" fill="#e73635"></path>
        <rect width="108" height="108" clip-path="url(&quot;#SvgjsClipPath1385&quot;)" x="1233.34" y="186.08" fill="url(&quot;#SvgjsPattern1386&quot;)" transform="rotate(71.52, 1287.34, 240.08)"></rect>
        <rect width="306.24" height="306.24" clip-path="url(&quot;#SvgjsClipPath1387&quot;)" x="1218.9" y="316.34" fill="url(&quot;#SvgjsPattern1388&quot;)" transform="rotate(58.01, 1372.02, 469.46)"></rect>
        <rect width="168.95999999999998" height="168.95999999999998" clip-path="url(&quot;#SvgjsClipPath1389&quot;)" x="459.29" y="-58.06" fill="url(&quot;#SvgjsPattern1390&quot;)" transform="rotate(158.52, 543.77, 26.42)"></rect>
        <rect width="168" height="168" clip-path="url(&quot;#SvgjsClipPath1391&quot;)" x="188.39" y="213.19" fill="url(&quot;#SvgjsPattern1392&quot;)" transform="rotate(236.69, 272.39, 297.19)"></rect>
        <rect width="88" height="88" clip-path="url(&quot;#SvgjsClipPath1393&quot;)" x="364.92" y="163.91" fill="url(&quot;#SvgjsPattern1394&quot;)" transform="rotate(17.19, 408.92, 207.91)"></rect>
        <rect width="181.72" height="181.72" clip-path="url(&quot;#SvgjsClipPath1395&quot;)" x="913.8" y="-87.79" fill="url(&quot;#SvgjsPattern1396&quot;)" transform="rotate(342.31, 1004.66, 3.07)"></rect>
        <path d="M574.47 29.87a5.6 5.6 0 1 0 7.49 8.33 5.6 5.6 0 1 0-7.49-8.33zM585.17 41.77a5.6 5.6 0 1 0 7.5 8.32 5.6 5.6 0 1 0-7.5-8.32zM595.88 53.66a5.6 5.6 0 1 0 7.49 8.33 5.6 5.6 0 1 0-7.49-8.33zM606.58 65.55a5.6 5.6 0 1 0 7.49 8.33 5.6 5.6 0 1 0-7.49-8.33zM541.18 16.79a5.6 5.6 0 1 0 7.49 8.32 5.6 5.6 0 1 0-7.49-8.32zM551.88 28.68a5.6 5.6 0 1 0 7.49 8.33 5.6 5.6 0 1 0-7.49-8.33zM562.58 40.57a5.6 5.6 0 1 0 7.49 8.33 5.6 5.6 0 1 0-7.49-8.33zM573.28 52.47a5.6 5.6 0 1 0 7.49 8.32 5.6 5.6 0 1 0-7.49-8.32zM507.88 3.7a5.6 5.6 0 1 0 7.49 8.33 5.6 5.6 0 1 0-7.49-8.33zM518.58 15.59a5.6 5.6 0 1 0 7.49 8.33 5.6 5.6 0 1 0-7.49-8.33zM529.28 27.49a5.6 5.6 0 1 0 7.49 8.32 5.6 5.6 0 1 0-7.49-8.32zM539.98 39.38a5.6 5.6 0 1 0 7.49 8.33 5.6 5.6 0 1 0-7.49-8.33z" stroke="#037b0b" stroke-width="1.5" stroke-dasharray="4, 4"></path>
        <rect width="288" height="288" clip-path="url(&quot;#SvgjsClipPath1397&quot;)" x="891.94" y="172.44" fill="url(&quot;#SvgjsPattern1398&quot;)" transform="rotate(14.31, 1035.94, 316.44)"></rect>
        <path d="M1049.4 349.17a5.6 5.6 0 1 0 10.18-4.67 5.6 5.6 0 1 0-10.18 4.67zM1063.94 342.5a5.6 5.6 0 1 0 10.18-4.68 5.6 5.6 0 1 0-10.18 4.68zM1078.49 335.82a5.6 5.6 0 1 0 10.18-4.67 5.6 5.6 0 1 0-10.18 4.67zM1093.03 329.15a5.6 5.6 0 1 0 10.18-4.67 5.6 5.6 0 1 0-10.18 4.67zM1026.99 377.06a5.6 5.6 0 1 0 10.18-4.67 5.6 5.6 0 1 0-10.18 4.67zM1041.53 370.38a5.6 5.6 0 1 0 10.18-4.67 5.6 5.6 0 1 0-10.18 4.67zM1056.08 363.71a5.6 5.6 0 1 0 10.17-4.67 5.6 5.6 0 1 0-10.17 4.67zM1070.62 357.04a5.6 5.6 0 1 0 10.18-4.67 5.6 5.6 0 1 0-10.18 4.67zM1004.58 404.95a5.6 5.6 0 1 0 10.18-4.68 5.6 5.6 0 1 0-10.18 4.68zM1019.12 398.27a5.6 5.6 0 1 0 10.18-4.67 5.6 5.6 0 1 0-10.18 4.67zM1033.66 391.6a5.6 5.6 0 1 0 10.18-4.67 5.6 5.6 0 1 0-10.18 4.67zM1048.21 384.93a5.6 5.6 0 1 0 10.18-4.67 5.6 5.6 0 1 0-10.18 4.67z" stroke="#d3b714" stroke-width="2.78" stroke-dasharray="4, 4"></path>
    </g>
    <defs>
        <mask id="SvgjsMask1382">
            <rect width="1440" height="560" fill="#ffffff"></rect>
        </mask>
        <pattern x="0" y="0" width="115.84" height="7.24" patternUnits="userSpaceOnUse" id="SvgjsPattern1384">
            <rect width="115.84" height="3.62" x="0" y="0" fill="#037b0b"></rect>
            <rect width="115.84" height="3.62" x="0" y="3.62" fill="rgba(0, 0, 0, 0)"></rect>
        </pattern>
        <clipPath id="SvgjsClipPath1383">
            <circle r="28.96" cx="28.11" cy="340.03"></circle>
        </clipPath>
        <pattern x="0" y="0" width="6" height="6" patternUnits="userSpaceOnUse" id="SvgjsPattern1386">
            <path d="M0 6L3 0L6 6" stroke="#e73635" fill="none"></path>
        </pattern>
        <clipPath id="SvgjsClipPath1385">
            <circle r="27" cx="1287.34" cy="240.08"></circle>
        </clipPath>
        <pattern x="0" y="0" width="306.24" height="12.76" patternUnits="userSpaceOnUse" id="SvgjsPattern1388">
            <rect width="306.24" height="6.38" x="0" y="0" fill="#e73635"></rect>
            <rect width="306.24" height="6.38" x="0" y="6.38" fill="rgba(0, 0, 0, 0)"></rect>
        </pattern>
        <clipPath id="SvgjsClipPath1387">
            <circle r="76.56" cx="1372.02" cy="469.46"></circle>
        </clipPath>
        <pattern x="0" y="0" width="7.68" height="7.68" patternUnits="userSpaceOnUse" id="SvgjsPattern1390">
            <path d="M0 7.68L3.84 0L7.68 7.68" stroke="#d3b714" fill="none"></path>
        </pattern>
        <clipPath id="SvgjsClipPath1389">
            <circle r="42.239999999999995" cx="543.77" cy="26.42"></circle>
        </clipPath>
        <pattern x="0" y="0" width="6" height="6" patternUnits="userSpaceOnUse" id="SvgjsPattern1392">
            <path d="M0 6L3 0L6 6" stroke="#e73635" fill="none"></path>
        </pattern>
        <clipPath id="SvgjsClipPath1391">
            <circle r="42" cx="272.39" cy="297.19"></circle>
        </clipPath>
        <pattern x="0" y="0" width="88" height="8.8" patternUnits="userSpaceOnUse" id="SvgjsPattern1394">
            <rect width="88" height="4.4" x="0" y="0" fill="#e73635"></rect>
            <rect width="88" height="4.4" x="0" y="4.4" fill="rgba(0, 0, 0, 0)"></rect>
        </pattern>
        <clipPath id="SvgjsClipPath1393">
            <circle r="22" cx="408.92" cy="207.91"></circle>
        </clipPath>
        <pattern x="0" y="0" width="181.72" height="8.26" patternUnits="userSpaceOnUse" id="SvgjsPattern1396">
            <rect width="181.72" height="4.13" x="0" y="0" fill="#d3b714"></rect>
            <rect width="181.72" height="4.13" x="0" y="4.13" fill="rgba(0, 0, 0, 0)"></rect>
        </pattern>
        <clipPath id="SvgjsClipPath1395">
            <circle r="45.43" cx="1004.66" cy="3.07"></circle>
        </clipPath>
        <pattern x="0" y="0" width="6" height="6" patternUnits="userSpaceOnUse" id="SvgjsPattern1398">
            <path d="M3 1L3 5M1 3L5 3" stroke="#d3b714" fill="none" stroke-width="1"></path>
        </pattern>
        <clipPath id="SvgjsClipPath1397">
            <circle r="72" cx="1035.94" cy="316.44"></circle>
        </clipPath>
    </defs>
</svg>