<svg xmlns="http://www.w3.org/2000/svg" version="1.1" xmlns:xlink="http://www.w3.org/1999/xlink" xmlns:svgjs="http://svgjs.dev/svgjs" width="1440" height="560" preserveAspectRatio="none" viewBox="0 0 1440 560">
    <g mask="url(&quot;#SvgjsMask1530&quot;)" fill="none">
        <path d="M505.17 157.86a5.6 5.6 0 1 0-11.19 0.11 5.6 5.6 0 1 0 11.19-0.11zM489.18 158.01a5.6 5.6 0 1 0-11.2 0.11 5.6 5.6 0 1 0 11.2-0.11zM473.18 158.16a5.6 5.6 0 1 0-11.2 0.11 5.6 5.6 0 1 0 11.2-0.11zM457.18 158.32a5.6 5.6 0 1 0-11.2 0.1 5.6 5.6 0 1 0 11.2-0.1zM537.02 141.56a5.6 5.6 0 1 0-11.2 0.11 5.6 5.6 0 1 0 11.2-0.11zM521.02 141.71a5.6 5.6 0 1 0-11.2 0.11 5.6 5.6 0 1 0 11.2-0.11zM505.02 141.86a5.6 5.6 0 1 0-11.2 0.11 5.6 5.6 0 1 0 11.2-0.11zM489.02 142.01a5.6 5.6 0 1 0-11.19 0.11 5.6 5.6 0 1 0 11.19-0.11zM568.87 125.26a5.6 5.6 0 1 0-11.2 0.11 5.6 5.6 0 1 0 11.2-0.11zM552.87 125.41a5.6 5.6 0 1 0-11.2 0.11 5.6 5.6 0 1 0 11.2-0.11zM536.87 125.56a5.6 5.6 0 1 0-11.2 0.11 5.6 5.6 0 1 0 11.2-0.11zM520.87 125.71a5.6 5.6 0 1 0-11.2 0.11 5.6 5.6 0 1 0 11.2-0.11z" fill="#037b0b"></path>
        <circle r="83.93062748413968" cx="655.88" cy="464.86" stroke="#037b0b" stroke-width="1" stroke-dasharray="4, 4"></circle>
        <rect width="60" height="60" clip-path="url(&quot;#SvgjsClipPath1531&quot;)" x="234.35" y="88.07" fill="url(&quot;#SvgjsPattern1532&quot;)" transform="rotate(209.62, 264.35, 118.07)"></rect>
        <path d="M722.51 463.03000000000003 L719.79 465.08000000000004L723.4775061803387 466.38250618033874z" stroke="#d3b714" stroke-width="1.97" stroke-dasharray="4, 4"></path>
        <path d="M338.48 413.99a5.6 5.6 0 1 0 2.62 10.89 5.6 5.6 0 1 0-2.62-10.89zM342.22 429.55a5.6 5.6 0 1 0 2.62 10.89 5.6 5.6 0 1 0-2.62-10.89zM345.97 445.11a5.6 5.6 0 1 0 2.62 10.88 5.6 5.6 0 1 0-2.62-10.88zM349.71 460.66a5.6 5.6 0 1 0 2.62 10.89 5.6 5.6 0 1 0-2.62-10.89zM315.44 386.62a5.6 5.6 0 1 0 2.62 10.89 5.6 5.6 0 1 0-2.62-10.89zM319.18 402.18a5.6 5.6 0 1 0 2.62 10.89 5.6 5.6 0 1 0-2.62-10.89zM322.92 417.74a5.6 5.6 0 1 0 2.62 10.89 5.6 5.6 0 1 0-2.62-10.89zM326.67 433.29a5.6 5.6 0 1 0 2.62 10.89 5.6 5.6 0 1 0-2.62-10.89z" fill="#d3b714"></path>
        <path d="M1390.8 552.32 L1427.9 555.1800000000001L1386.623844090738 576.4761559092619z" stroke="#d3b714" stroke-width="1" stroke-dasharray="4, 4"></path>
        <rect width="144" height="144" clip-path="url(&quot;#SvgjsClipPath1533&quot;)" x="553.78" y="263.78" fill="url(&quot;#SvgjsPattern1534&quot;)" transform="rotate(59.32, 625.78, 335.78)"></rect>
        <circle r="67.35935139007958" cx="292.11" cy="305.73" stroke="#d3b714" stroke-width="1"></circle>
        <path d="M1056.5 546.6 L965.64 533.9000000000001L1049.404531527371 501.91546847262885z" stroke="#e73635" stroke-width="1.49" stroke-dasharray="2, 2"></path>
        <rect width="60" height="60" clip-path="url(&quot;#SvgjsClipPath1535&quot;)" x="203.19" y="-7.16" fill="url(&quot;#SvgjsPattern1536&quot;)" transform="rotate(49.34, 233.19, 22.84)"></rect>
        <path d="M702.56 212.34a5.6 5.6 0 1 0-3.69-10.57 5.6 5.6 0 1 0 3.69 10.57zM697.28 197.24a5.6 5.6 0 1 0-3.69-10.58 5.6 5.6 0 1 0 3.69 10.58zM692.01 182.13a5.6 5.6 0 1 0-3.69-10.57 5.6 5.6 0 1 0 3.69 10.57zM686.74 167.03a5.6 5.6 0 1 0-3.69-10.58 5.6 5.6 0 1 0 3.69 10.58zM728.21 237.28a5.6 5.6 0 1 0-3.69-10.57 5.6 5.6 0 1 0 3.69 10.57zM722.94 222.18a5.6 5.6 0 1 0-3.7-10.58 5.6 5.6 0 1 0 3.7 10.58zM717.66 207.07a5.6 5.6 0 1 0-3.69-10.57 5.6 5.6 0 1 0 3.69 10.57zM712.39 191.97a5.6 5.6 0 1 0-3.69-10.58 5.6 5.6 0 1 0 3.69 10.58z" stroke="#d3b714" stroke-width="2.92" stroke-dasharray="3, 3"></path>
        <rect width="101.08" height="101.08" clip-path="url(&quot;#SvgjsClipPath1537&quot;)" x="827.7" y="240.13" fill="url(&quot;#SvgjsPattern1538&quot;)" transform="rotate(38.94, 878.24, 290.67)"></rect>
    </g>
    <defs>
        <mask id="SvgjsMask1530">
            <rect width="1440" height="560" fill="#ffffff"></rect>
        </mask>
        <pattern x="0" y="0" width="60" height="6" patternUnits="userSpaceOnUse" id="SvgjsPattern1532">
            <rect width="60" height="3" x="0" y="0" fill="#037b0b"></rect>
            <rect width="60" height="3" x="0" y="3" fill="rgba(0, 0, 0, 0)"></rect>
        </pattern>
        <clipPath id="SvgjsClipPath1531">
            <circle r="15" cx="264.35" cy="118.07"></circle>
        </clipPath>
        <pattern x="0" y="0" width="6" height="6" patternUnits="userSpaceOnUse" id="SvgjsPattern1534">
            <path d="M0 6L3 0L6 6" stroke="#037b0b" fill="none"></path>
        </pattern>
        <clipPath id="SvgjsClipPath1533">
            <circle r="36" cx="625.78" cy="335.78"></circle>
        </clipPath>
        <pattern x="0" y="0" width="6" height="6" patternUnits="userSpaceOnUse" id="SvgjsPattern1536">
            <path d="M3 1L3 5M1 3L5 3" stroke="#037b0b" fill="none" stroke-width="1.74"></path>
        </pattern>
        <clipPath id="SvgjsClipPath1535">
            <circle r="15" cx="233.19" cy="22.84"></circle>
        </clipPath>
        <pattern x="0" y="0" width="7.22" height="7.22" patternUnits="userSpaceOnUse" id="SvgjsPattern1538">
            <path d="M3.61 1L3.61 6.22M1 3.61L6.22 3.61" stroke="#e73635" fill="none" stroke-width="1"></path>
        </pattern>
        <clipPath id="SvgjsClipPath1537">
            <circle r="25.27" cx="878.24" cy="290.67"></circle>
        </clipPath>
    </defs>
</svg>